<svg width="30" height="23" viewBox="0 0 30 23" fill="none" xmlns="http://www.w3.org/2000/svg">
<path d="M7.89602 10.0441L12.3114 2.29349C12.9227 1.22039 14.5638 0.665918 15.8947 1.21453C17.9659 2.06833 17.5504 2.86862 17.5504 7.89205H25.3688C27.0594 7.89205 28.3522 9.0677 28.0952 10.3713L26.1855 20.0554C25.9785 21.1053 24.8207 21.8803 23.4591 21.8803H7.89602M7.89602 10.0441V21.8803V10.0441ZM7.89602 10.0441H3.75841C2.23498 10.0441 1 11.0075 1 12.1961V19.7282C1 20.9167 2.23498 21.8803 3.75841 21.8803H7.89602" fill="white"/>
<path d="M7.89602 10.0441L12.3114 2.29349C12.9227 1.22039 14.5638 0.665918 15.8947 1.21453C17.9659 2.06833 17.5504 2.86862 17.5504 7.89205H25.3688C27.0594 7.89205 28.3522 9.0677 28.0952 10.3713L26.1855 20.0554C25.9785 21.1053 24.8207 21.8803 23.4591 21.8803H7.89602M7.89602 10.0441V21.8803M7.89602 10.0441H3.75841C2.23498 10.0441 1 11.0075 1 12.1961V19.7282C1 20.9167 2.23498 21.8803 3.75841 21.8803H7.89602" stroke="#EFA39C" stroke-width="2" stroke-linecap="round" stroke-linejoin="round"/>
</svg>
